<svg width="2239" height="407" viewBox="0 0 2239 407" fill="none" xmlns="http://www.w3.org/2000/svg">
<path d="M2035.51 316.209C2097.75 316.209 2148.21 265.753 2148.21 203.513C2148.21 141.273 2097.75 90.8179 2035.51 90.8179C1973.27 90.8179 1922.82 141.273 1922.82 203.513C1922.82 265.753 1973.27 316.209 2035.51 316.209Z" stroke="#F29753" stroke-width="4" stroke-miterlimit="10"/>
<path d="M2035.51 297.587C2087.47 297.587 2129.59 255.469 2129.59 203.515C2129.59 151.56 2087.47 109.442 2035.51 109.442C1983.56 109.442 1941.44 151.56 1941.44 203.515C1941.44 255.469 1983.56 297.587 2035.51 297.587Z" fill="#F29753"/>
<path d="M2035.5 0L2003 65.8395H2067.98L2035.5 0ZM2035.5 29.1189L2020.11 60.3009H2011.9L2035.5 12.5171L2059.08 60.3009H2050.88L2035.5 29.1189V29.1189Z" fill="#F29753"/>
<path d="M2003.07 341.161L2035.57 407.001L2068.05 341.161H2003.07ZM2011.97 346.7H2020.18L2035.57 377.868L2050.94 346.7H2059.15L2035.57 394.483L2011.97 346.7Z" fill="#F29753"/>
<path d="M2173.16 170.976V235.957L2239 203.473L2173.16 170.976V170.976ZM2178.7 218.856L2209.88 203.473L2178.7 188.09V179.879L2226.48 203.473L2178.7 227.053V218.856V218.856Z" fill="#F29753"/>
<path d="M1891.51 59.6934L1915.09 129.216L1961.03 83.2737L1891.51 59.6934V59.6934ZM1923.27 113.21L1917.46 119.011L1900.36 68.5412L1950.83 85.6553L1945.03 91.4431L1912.1 80.2829L1923.27 113.21Z" fill="#F29753"/>
<path d="M2155.77 277.911L2109.81 323.853L2179.35 347.434L2155.77 277.911ZM2125.83 315.67L2158.74 326.83L2147.58 293.918L2153.39 288.116L2170.5 338.572L2120.03 321.472L2125.83 315.67Z" fill="#F29753"/>
<path d="M2109.76 83.2439L2155.7 129.186L2179.28 59.6636L2109.76 83.2439ZM2153.32 118.981L2147.53 113.18L2158.69 80.2531L2125.76 91.4271L2119.96 85.6117L2170.43 68.5114L2153.32 118.981V118.981Z" fill="#F29753"/>
<path d="M1915.12 277.966L1891.54 347.503L1961.06 323.922L1915.12 277.966ZM1917.5 288.185L1923.3 293.987L1912.14 326.899L1945.05 315.739L1950.86 321.541L1900.4 338.655L1917.5 288.185Z" fill="#F29753"/>
<path d="M206.741 292.393C188.353 300.161 167.361 302.168 146.55 296.768C96.2604 283.711 66.0892 232.369 79.1463 182.079C91.6773 133.797 139.516 104.041 187.799 113.304C162.266 124.561 141.926 146.964 134.366 176.083C121.253 226.609 151.577 278.2 202.102 291.313C203.639 291.714 205.19 292.074 206.727 292.379L206.741 292.393Z" fill="#F29753"/>
<path d="M241.357 293.099C214.481 314.949 177.94 324.157 141.87 314.797C81.6249 299.164 45.4721 237.645 61.1046 177.399C76.7372 117.154 138.257 80.9868 198.502 96.6332C206.658 98.7517 214.384 101.715 221.584 105.398C209.787 105.91 198.35 108.666 187.799 113.304C162.266 124.561 141.926 146.965 134.366 176.084C121.253 226.609 151.577 278.201 202.102 291.313C203.639 291.715 205.19 292.075 206.727 292.379C218.441 294.816 230.155 294.955 241.343 293.085L241.357 293.099Z" stroke="#F29753" stroke-width="4" stroke-miterlimit="10"/>
<path d="M53.1421 270.779C44.0035 254.398 37.6619 238.808 33.2172 225.1C28.7448 238.808 22.4032 254.398 13.2784 270.779C9.13839 278.187 4.87371 284.971 0.636719 291.119C4.87371 297.267 9.13839 304.052 13.2784 311.459C22.4032 327.84 28.7448 343.431 33.2172 357.139C37.6619 343.431 44.0035 327.84 53.1421 311.459C57.2822 304.052 61.5469 297.267 65.7839 291.119C61.5469 284.971 57.2684 278.187 53.1421 270.779ZM18.1801 270.779C24.4663 259.134 29.3679 247.946 33.2172 237.644C37.0388 247.946 41.9404 259.134 48.2267 270.779C51.0652 276.027 53.9591 280.942 56.853 285.567H48.6282C45.7759 281.44 42.7574 276.525 39.905 270.779C36.9419 264.811 34.7957 259.231 33.2172 254.315C31.611 259.231 29.4648 264.811 26.5017 270.779C23.6632 276.525 20.6309 281.44 17.7924 285.567H9.56762C12.4477 280.942 15.3416 276.027 18.1801 270.779V270.779ZM48.2267 311.459C41.9404 323.104 37.0527 334.278 33.2172 344.58C29.3679 334.278 24.4663 323.104 18.1801 311.459C15.3416 306.212 12.4477 301.296 9.56762 296.671H17.7924C20.6309 300.798 23.6632 305.713 26.5017 311.459C29.4648 317.427 31.611 323.007 33.2172 327.923C34.7957 323.007 36.9419 317.427 39.905 311.459C42.7574 305.713 45.7759 300.798 48.6282 296.671H56.853C53.9591 301.296 51.0652 306.212 48.2267 311.459Z" fill="#F29753"/>
<path d="M82.3987 320.224C77.8294 312.041 74.6586 304.246 72.4293 297.392C70.2001 304.246 67.0292 312.041 62.4599 320.224C60.3968 323.935 58.2645 327.327 56.146 330.401C58.2645 333.475 60.3968 336.854 62.4599 340.565C67.0292 348.762 70.2001 356.557 72.4293 363.411C74.6586 356.557 77.8294 348.762 82.3987 340.565C84.4757 336.854 86.608 333.475 88.7265 330.401C86.608 327.327 84.4618 323.935 82.3987 320.224V320.224ZM64.9107 320.224C68.0539 314.409 70.5047 308.815 72.4293 303.664C74.354 308.815 76.8048 314.409 79.9479 320.224C81.3602 322.855 82.8002 325.306 84.2541 327.618H80.1417C78.7156 325.555 77.2063 323.104 75.7801 320.224C74.2986 317.247 73.2186 314.45 72.4293 312C71.6401 314.45 70.5601 317.247 69.0785 320.224C67.6523 323.104 66.1431 325.555 64.7307 327.618H60.6045C62.0584 325.306 63.4984 322.855 64.9107 320.224ZM79.9479 340.565C76.8048 346.394 74.354 351.974 72.4293 357.125C70.5047 351.974 68.0539 346.394 64.9107 340.565C63.4984 337.948 62.0584 335.483 60.6045 333.171H64.7307C66.1431 335.234 67.6523 337.698 69.0785 340.565C70.5601 343.555 71.6401 346.339 72.4293 348.803C73.2186 346.339 74.2986 343.555 75.7801 340.565C77.2063 337.698 78.7156 335.234 80.1417 333.171H84.2541C82.8002 335.483 81.3602 337.948 79.9479 340.565Z" fill="#F29753"/>
<path d="M54.0979 94.9305C44.6962 78.0518 38.1607 61.99 33.5637 47.8667C28.9667 61.99 22.4451 78.0518 13.0157 94.9305C8.77871 102.574 4.36173 109.552 0.00012207 115.894C4.36173 122.222 8.75102 129.2 13.0157 136.843C22.4451 153.722 28.9667 169.784 33.5637 183.907C38.1607 169.784 44.6962 153.722 54.0979 136.843C58.3625 129.2 62.7518 122.222 67.1134 115.894C62.7518 109.552 58.3625 102.574 54.0979 94.9305V94.9305ZM18.0835 94.9305C24.5636 82.9257 29.6175 71.4194 33.5637 60.7992C37.5238 71.4194 42.5777 82.9257 49.0578 94.9305C51.9655 100.344 54.9425 105.398 57.9195 110.161H49.4455C46.5239 105.924 43.4085 100.857 40.473 94.9305C37.4268 88.7827 35.2114 83.0365 33.5637 77.9687C31.9298 83.0365 29.7144 88.7827 26.6682 94.9305C23.7189 100.857 20.6174 105.924 17.6819 110.161H9.20795C12.1849 105.398 15.1619 100.344 18.0835 94.9305V94.9305ZM49.0578 136.843C42.5777 148.848 37.5238 160.355 33.5637 170.975C29.6036 160.355 24.5636 148.848 18.0835 136.843C15.1619 131.443 12.1849 126.376 9.20795 121.612H17.6819C20.6174 125.863 23.7189 130.917 26.6682 136.843C29.7144 142.991 31.9298 148.751 33.5637 153.805C35.2114 148.751 37.4268 142.991 40.473 136.843C43.4085 130.917 46.5239 125.863 49.4455 121.612H57.9195C54.9425 126.376 51.9655 131.443 49.0578 136.843V136.843Z" fill="#F29753"/>
<path d="M87.8558 61.5047C82.9819 52.7676 79.6034 44.4598 77.2218 37.1489C74.8402 44.4598 71.4617 52.7676 66.5878 61.5047C64.3862 65.4647 62.1016 69.0786 59.8446 72.3602C62.1016 75.6418 64.3862 79.2557 66.5878 83.2019C71.4617 91.939 74.8402 100.247 77.2218 107.558C79.6034 100.247 82.9819 91.939 87.8558 83.2019C90.0574 79.2557 92.3282 75.6418 94.5851 72.3602C92.3282 69.0786 90.0574 65.4647 87.8558 61.5047ZM69.2047 61.5047C72.5556 55.3015 75.1725 49.3337 77.2218 43.8506C79.271 49.3337 81.888 55.3015 85.2388 61.5047C86.7481 64.3155 88.285 66.9325 89.822 69.3971H85.4327C83.9234 67.1955 82.3172 64.5786 80.7941 61.5047C79.2157 58.32 78.0664 55.3569 77.2218 52.7261C76.3772 55.3569 75.2279 58.32 73.6494 61.5047C72.1263 64.5786 70.5202 67.1955 68.9971 69.3971H64.6078C66.1585 66.9325 67.6955 64.3155 69.2047 61.5047ZM85.2388 83.2019C81.888 89.4189 79.271 95.3729 77.2218 100.87C75.1725 95.3729 72.5556 89.4189 69.2047 83.2019C67.6955 80.405 66.1585 77.788 64.6078 75.3234H68.9971C70.5202 77.5111 72.1263 80.1419 73.6494 83.2019C75.2279 86.3866 76.3772 89.3636 77.2218 91.9805C78.0664 89.3636 79.2157 86.3866 80.7941 83.2019C82.3172 80.1419 83.9234 77.5111 85.4327 75.3234H89.822C88.285 77.788 86.7481 80.405 85.2388 83.2019Z" fill="#F29753"/>
<path d="M1160.17 281.096C1149.43 291.841 1136.92 297.213 1122.68 297.213C1108.43 297.213 1095.88 291.952 1085.35 281.415C1074.82 270.891 1069.56 257.862 1069.56 242.326V241.856H1202.76C1202.76 218.455 1195.8 199.735 1181.87 185.695C1165.7 169.536 1145.97 161.45 1122.68 161.45C1099.39 161.45 1080.06 169.425 1064.05 185.376C1048.04 201.327 1040.04 220.311 1040.04 242.326C1040.04 264.342 1048.04 283.035 1064.05 299.041C1080.06 315.047 1099.59 323.051 1122.68 323.051C1145.76 323.051 1165.7 314.923 1181.87 298.639C1187.19 293.433 1191.87 287.424 1195.91 280.612L1168.78 271.044C1164.53 276.264 1161.65 279.615 1160.17 281.096V281.096ZM1122.68 186.969C1147.57 186.969 1163.41 196.869 1170.22 216.641H1074.66C1081.68 196.869 1097.68 186.969 1122.68 186.969Z" fill="#F29753"/>
<path d="M1269.45 173.412V116.78H1240.73V173.412H1213.62V198.294H1240.73V319.228H1269.45V198.294H1296.57V173.412H1269.45V173.412Z" fill="#F29753"/>
<path d="M998.421 89.6558V319.228H969.537V216.959H875.258V319.228H846.388V89.6558H875.258V191.911H952.922V89.725H958.46V191.911H969.537V89.6558H998.421Z" fill="#F29753"/>
<path d="M835.31 89.6558H829.772V319.145H835.31V89.6558Z" fill="#F29753"/>
<path d="M600.781 89.6558V243.932C600.781 256.574 597.098 267.512 589.69 276.706C589.51 276.942 589.316 277.177 589.122 277.412C588.928 277.648 588.734 277.883 588.527 278.132C588.25 278.465 587.959 278.797 587.668 279.116C587.682 279.129 587.668 279.129 587.668 279.129C587.087 279.766 586.491 280.403 585.868 281.026C585.647 281.248 585.411 281.483 585.19 281.691L585.162 281.719C584.83 282.051 584.497 282.369 584.165 282.688C584.013 282.826 583.874 282.965 583.722 283.103L583.667 283.145C574.21 291.785 563.271 296.091 550.851 296.091C537.351 296.091 525.595 291.079 515.598 281.026C505.601 270.974 500.602 258.609 500.602 243.932V89.6558H471.719V243.932C471.719 244.583 471.733 245.234 471.746 245.884V246.134C472.259 266.155 479.86 283.533 494.538 298.251C509.741 313.51 528.517 321.153 550.851 321.153C573.185 321.153 591.531 313.593 606.527 298.487C619.501 285.513 627.213 270.046 629.664 252.074V89.6558H600.781V89.6558Z" fill="#F29753"/>
<path d="M460.669 89.6558H455.131V246.133H460.669V89.6558Z" fill="#F29753"/>
<path d="M471.746 89.6558V245.884C471.733 245.233 471.719 244.583 471.719 243.932V89.6558H471.746Z" fill="#0B0816"/>
<path d="M583.389 283.449C585.993 281.109 588.056 278.783 589.69 276.72L583.389 283.449Z" fill="#F29753"/>
<path d="M589.688 276.706L589.702 89.6558H584.163V282.826L589.688 276.706Z" fill="#F29753"/>
<path d="M1352.13 95.1807L1354.7 95.1945L1352.13 95.1807Z" fill="#F29753"/>
<path d="M1465.87 112.945C1453.01 99.9713 1437 92.2035 1417.85 89.6558H1338.08V319.228H1343.62V95.1805H1354.7L1404.99 95.1943V106.271H1354.7V319.228H1381.01V244.084H1409.39C1431.63 244.084 1450.35 236.427 1465.55 221.113C1480.76 205.799 1488.37 187.66 1488.37 166.711C1488.37 145.761 1480.87 127.941 1465.87 112.945V112.945ZM1444.49 203.957C1434.5 213.913 1422.8 218.884 1409.39 218.884H1381.01V114.856H1409.39C1422.8 114.856 1434.5 119.813 1444.49 129.699C1454.49 139.586 1459.49 151.937 1459.49 166.711C1459.49 181.485 1454.49 194.016 1444.49 203.957Z" fill="#F29753"/>
<path d="M1352.22 95.1807H1352.13V95.1945H1352.22V95.1807Z" fill="#F29753"/>
<path d="M1354.7 95.1807H1352.13V95.1945H1354.7V95.1807Z" fill="#0B0816"/>
<path d="M427.437 319.228L375.9 239.612C383.765 237.701 392.807 231.581 403.025 221.279C418.436 205.854 426.149 187.66 426.149 166.711C426.149 145.761 418.658 127.941 403.662 112.945C390.785 99.9713 374.779 92.2035 355.643 89.6558H289.914V95.1943H345.743V106.271H295.453V319.228H318.784V244.084H345.743L394.081 319.215L427.437 319.228V319.228ZM318.784 218.884V114.856H347.183C360.586 114.856 372.286 119.813 382.283 129.699C392.281 139.586 397.279 151.937 397.279 166.711C397.279 181.485 392.281 194.016 382.283 203.957C372.286 213.913 360.586 218.884 347.183 218.884H318.784Z" fill="#F29753"/>
<path d="M292.975 89.6558V95.1943H289.915V95.1805H284.376V319.228H278.838V89.6558H292.975Z" fill="#F29753"/>
<path d="M295.453 95.1807H289.914V95.1945H295.453V95.1807Z" fill="#0B0816"/>
<path d="M334.667 244.085H329.128L377.466 319.229H383.004L334.667 244.085Z" fill="#F29753"/>
<path d="M1858.18 122.042C1836.91 100.663 1807.13 89.8767 1768.85 89.6551H1724.14V89.6274H1710V319.2H1715.54V95.1521H1776.92V106.229H1726.61V319.228H1768.85C1807.13 319.02 1836.71 308.483 1857.54 287.644C1880.74 264.341 1892.33 236.593 1892.33 204.358C1892.33 172.124 1880.95 145.013 1858.18 122.042V122.042ZM1835.85 270.253C1819.58 285.983 1797.19 293.861 1768.69 293.861H1749.22V115.174H1768.69C1797.19 115.174 1819.58 122.942 1835.85 138.477C1853.82 156.658 1862.81 178.618 1862.81 204.358C1862.81 230.099 1853.82 252.281 1835.85 270.253Z" fill="#F29753"/>
<path d="M1617.71 223.812H1606.64L1617.69 223.826L1652.3 319.214H1652.32L1617.71 223.812V223.812Z" fill="#F29753"/>
<path d="M1652.3 319.227H1682.31L1599.19 89.6538H1574.14L1489.9 319.227H1520.05L1555.31 223.825H1606.64L1617.71 223.811L1652.31 319.213H1652.3V319.227ZM1564.4 198.943L1586.57 138.005L1608.59 198.943H1564.4Z" fill="#F29753"/>
<path d="M1606.63 223.839L1641.22 319.213H1635.68L1601.1 223.839H1606.63Z" fill="#F29753"/>
<path d="M1563.06 89.6538L1478.82 319.227H1473.28L1557.52 89.6538H1563.06Z" fill="#F29753"/>
<path d="M1652.32 319.214H1652.3L1617.69 223.826H1606.64V223.812H1617.71L1652.32 319.214Z" fill="#0B0816"/>
<path d="M770.537 233.435C770.509 233.338 770.468 233.241 770.426 233.158C770.315 232.881 770.204 232.604 770.094 232.327C769.983 232.05 769.858 231.773 769.734 231.51C769.568 231.15 769.401 230.776 769.208 230.416C769.041 230.042 768.848 229.682 768.654 229.322C768.571 229.184 768.488 229.032 768.391 228.879C768.446 228.976 768.488 229.073 768.543 229.17C768.764 229.586 768.972 229.987 769.166 230.402C769.18 230.416 769.194 230.416 769.194 230.43C769.374 230.804 769.554 231.192 769.72 231.566C770.038 232.272 770.343 232.992 770.62 233.712C770.592 233.615 770.564 233.518 770.537 233.435V233.435ZM760.512 283.725C751.747 292.503 741.446 296.893 729.649 296.893C717.851 296.893 707.84 292.642 699.339 284.126C691.571 276.469 686.836 264.298 685.132 247.6L685.008 247.641C686.628 264.188 691.557 276.788 699.173 284.293C707.577 292.711 717.727 296.976 729.344 296.976C740.961 296.976 751.567 292.725 760.207 284.071C760.844 283.434 761.467 282.783 762.049 282.119C761.55 282.659 761.038 283.199 760.512 283.725V283.725Z" fill="#F29753"/>
<path d="M802.078 251.104C802.078 270.253 795.072 286.814 781.101 300.799C767.102 314.783 749.96 321.776 729.648 321.776C709.335 321.776 691.944 314.603 677.793 300.245C666.73 289.292 659.931 275.086 657.383 257.639L685.007 247.642C686.627 264.189 691.556 276.789 699.172 284.294C707.577 292.712 717.726 296.977 729.343 296.977C740.96 296.977 751.566 292.726 760.207 284.072C760.844 283.435 761.467 282.784 762.048 282.12H762.062C762.062 282.12 762.103 282.064 762.117 282.051C762.547 281.58 762.962 281.095 763.363 280.61C763.807 280.098 764.236 279.572 764.623 279.032C764.983 278.589 765.316 278.118 765.634 277.661C765.731 277.509 765.842 277.37 765.953 277.218C771.104 269.741 773.679 261.046 773.679 251.104C773.679 246.272 773.084 241.73 771.879 237.493C771.851 237.41 771.824 237.313 771.796 237.216C771.671 236.787 771.547 236.358 771.408 235.928C770.508 232.993 769.248 230.182 767.6 227.468C767.337 227.039 767.074 226.61 766.797 226.18C766.756 226.111 766.7 226.042 766.659 225.973C764.997 223.397 763.031 220.988 760.76 218.717C752.037 210.105 741.819 203.348 730.118 198.46C713.641 193.032 700.39 185.32 690.393 175.323C684.301 169.23 680.064 162.349 677.696 154.719C677.599 154.401 677.516 154.082 677.433 153.764C676.076 149.153 675.411 144.265 675.411 139.115C675.411 130.031 677.641 121.682 682.113 114.053C682.196 113.914 682.265 113.79 682.348 113.651C682.542 113.319 682.75 112.973 682.958 112.64C684.688 109.885 686.724 107.212 689.078 104.637C689.382 104.305 689.687 103.972 690.005 103.64C690.31 103.322 690.629 102.989 690.961 102.657C691.612 102.006 692.262 101.369 692.941 100.76C693.342 100.386 693.758 100.012 694.187 99.6524C703.963 91.1784 715.774 86.9414 729.648 86.9414C744.851 86.9414 757.88 92.3138 768.736 103.059C774.371 108.583 778.788 116.351 781.973 126.348L756.122 136.401C752.937 127.788 750.071 122.194 747.509 119.647C742.303 114.33 736.349 111.671 729.648 111.671C722.946 111.671 717.172 114.246 712.021 119.411C706.856 124.562 704.281 131.139 704.281 139.115C704.281 147.09 706.94 153.681 712.257 159.219C717.781 164.536 725.341 169.424 734.909 173.883C753.2 179.851 768.514 188.989 780.851 201.326C795.002 215.366 802.078 231.954 802.078 251.104V251.104Z" fill="#F29753"/>
<path d="M695.684 248.735C695.434 247.185 695.227 245.648 695.088 244.166C695.24 245.689 695.434 247.212 695.684 248.735Z" fill="#0B0816"/>
<path d="M707.078 277.037C706.247 276.234 705.444 275.265 704.669 274.143C705.347 275.085 706.054 275.915 706.774 276.635C711.191 281.052 716.065 283.905 721.52 285.262C716.341 284.057 711.689 281.495 707.078 277.037Z" fill="#0B0816"/>
<path d="M747.385 280.762C742.498 284.141 737.014 285.941 731.005 286.135C736.987 285.872 742.442 284.127 747.385 280.762Z" fill="#0B0816"/>
<path d="M752.799 226.207C752.633 226.013 752.425 225.833 752.245 225.639C752.287 225.681 752.314 225.708 752.356 225.736C752.508 225.888 752.66 226.055 752.799 226.207V226.207Z" fill="#0B0816"/>
<path d="M752.245 225.639C751.719 225.127 751.192 224.628 750.666 224.13L750.763 224.088C751.289 224.587 751.774 225.113 752.245 225.639V225.639Z" fill="#0B0816"/>
<path d="M755.443 273.229C759.403 268.3 761.798 262.692 762.49 256.17C761.909 263.827 759.693 268.258 755.443 273.229Z" fill="#0B0816"/>
<path d="M762.049 282.12C761.467 282.784 760.844 283.435 760.207 284.072C751.567 292.726 741.044 296.977 729.344 296.977C717.644 296.977 707.577 292.712 699.173 284.293C691.557 276.789 686.628 264.189 685.008 247.642L685.132 247.601C686.836 264.299 691.571 276.47 699.339 284.127C707.84 292.643 717.948 296.894 729.649 296.894C741.349 296.894 751.747 292.504 760.512 283.726C761.038 283.2 761.55 282.66 762.049 282.12V282.12Z" fill="#0B0816"/>
<path d="M771.409 235.928C770.924 234.433 770.357 232.979 769.72 231.567C769.554 231.193 769.374 230.805 769.194 230.431C769.194 230.418 769.18 230.418 769.166 230.404C768.972 229.988 768.764 229.587 768.543 229.171C768.252 228.604 767.934 228.036 767.601 227.468C769.249 230.182 770.509 232.993 771.409 235.928V235.928Z" fill="#0B0816"/>
<path d="M762.658 250.964C762.672 252.861 762.617 254.592 762.492 256.17C761.911 263.827 759.695 268.258 755.444 273.229C754.724 274.074 753.949 274.932 753.118 275.818C752.315 276.677 751.484 277.48 750.626 278.242C750.21 278.602 749.795 278.948 749.38 279.294C749.352 279.308 749.324 279.335 749.297 279.349C748.964 279.612 748.632 279.875 748.3 280.111C747.995 280.346 747.69 280.554 747.386 280.762C742.498 284.14 737.015 285.94 731.006 286.134C730.632 286.162 730.258 286.162 729.87 286.162C727.752 286.162 725.716 286.023 723.778 285.719C723.653 285.691 723.542 285.677 723.432 285.663C723.127 285.608 722.822 285.552 722.532 285.483C722.185 285.414 721.853 285.345 721.521 285.262C716.342 284.057 711.69 281.495 707.079 277.037C706.248 276.234 705.445 275.265 704.67 274.143C704.559 273.991 704.448 273.825 704.337 273.658C700.308 267.594 697.124 257.749 695.684 248.776V248.735C695.434 247.184 695.227 245.647 695.088 244.166L695.24 244.069L700.308 242.241C701.679 254.786 706.151 268.424 710.679 273.188C716.107 278.962 722.504 280.72 729.87 280.72C737.236 280.72 743.952 277.854 749.504 271.969C755.292 265.807 758.158 258.954 757.424 249.843C756.746 241.507 751.775 231.275 745.212 226.096L750.667 224.13L750.764 224.088C751.291 224.587 751.775 225.113 752.246 225.639C752.287 225.681 752.315 225.708 752.357 225.736C752.509 225.888 752.661 226.055 752.8 226.207C756.635 230.444 759.321 235.318 760.928 240.289C760.955 240.386 760.983 240.482 761.011 240.579C761.108 240.898 761.205 241.216 761.288 241.535C761.398 241.923 761.509 242.324 761.606 242.726C761.634 242.823 761.648 242.906 761.661 242.989C761.786 243.487 761.897 243.972 761.994 244.47C762.035 244.65 762.063 244.844 762.091 245.024C762.16 245.384 762.215 245.744 762.271 246.104C762.312 246.353 762.354 246.603 762.381 246.852C762.423 247.17 762.465 247.489 762.492 247.821C762.603 248.873 762.658 249.926 762.658 250.964V250.964Z" fill="#F29753"/>
<path d="M688.884 89.6538C683.193 94.4308 678.582 99.3878 675.079 104.442C678.568 99.3047 683.165 94.3754 688.787 89.6538H688.884V89.6538Z" fill="#0B0816"/>
<path d="M688.786 89.6538C683.165 94.3754 678.568 99.3047 675.078 104.442C674.857 104.774 674.621 105.12 674.4 105.466C674.068 105.965 673.763 106.449 673.458 106.948C673.154 107.446 672.863 107.945 672.586 108.429C672.295 108.928 672.032 109.426 671.769 109.925C671.257 110.922 670.772 111.919 670.343 112.93C670.343 112.943 670.329 112.943 670.329 112.957C663.807 127.911 664.763 147.67 669.637 163.912C670.246 165.933 670.911 167.9 671.631 169.797L666.217 171.86C659.141 153.236 657.05 128.867 665.026 110.631C668.155 103.389 673.264 96.3554 680.243 89.6538H688.786V89.6538Z" fill="#F29753"/>
<path d="M688.884 89.6538C683.193 94.4308 678.582 99.3878 675.079 104.442C678.568 99.3047 683.165 94.3754 688.787 89.6538H688.884V89.6538Z" fill="#F29753"/>
</svg>
